<?xml version="1.0" standalone="no"?><!DOCTYPE svg PUBLIC "-//W3C//DTD SVG 1.1//EN" "http://www.w3.org/Graphics/SVG/1.1/DTD/svg11.dtd"><svg t="1534252328329" class="icon" style="" viewBox="0 0 1024 1024" version="1.1" xmlns="http://www.w3.org/2000/svg" p-id="2974" xmlns:xlink="http://www.w3.org/1999/xlink" width="128" height="128"><defs><style type="text/css"></style></defs><path d="M932.8 726.4l35.2 20.8-24 43.2-35.2-19.2v48l-49.6-28.8v-48l-30.4-17.6v94.4l-49.6-28.8v-94.4l-30.4-17.6v140.8l-49.6-28.8v-112l-137.6 80 97.6 56v57.6l-121.6-70.4v35.2l81.6 48v57.6l-81.6-48v35.2l41.6 24v57.6l-41.6-24V1024h-49.6v-40L446.4 1008v-57.6l41.6-24v-35.2l-81.6 46.4V880l81.6-46.4v-35.2l-121.6 70.4v-57.6l97.6-56-137.6-80v112L276.8 816v-140.8l-30.4 17.6v94.4L196.8 816v-94.4l-30.4 17.6v48L116.8 816v-48L80 788.8l-24-43.2 35.2-19.2-41.6-24 49.6-28.8 41.6 24 30.4-17.6-81.6-46.4 49.6-28.8 81.6 46.4 30.4-17.6-121.6-70.4 49.6-28.8 97.6 56V432l-97.6 56-49.6-28.8 121.6-70.4-30.4-17.6-81.6 48-49.6-28.8 81.6-48-30.4-17.6-41.6 24L49.6 320l41.6-24-35.2-20.8L80 232l35.2 19.2v-48l49.6 28.8v48l30.4 17.6v-94.4l49.6 28.8v94.4l30.4 17.6v-140.8l49.6 28.8v112l137.6-80-97.6-56V150.4l121.6 70.4v-35.2l-81.6-48V80l81.6 48V97.6l-41.6-24V16l41.6 24V0h49.6v40L577.6 16v57.6L537.6 96v35.2l81.6-46.4v57.6l-81.6 46.4V224l121.6-70.4v57.6l-97.6 56 137.6 80v-112l49.6-28.8v140.8l30.4-17.6v-94.4l49.6-28.8v94.4l30.4-17.6v-48l49.6-28.8v48l35.2-20.8 24 43.2-35.2 19.2 41.6 24-49.6 28.8-41.6-24-30.4 17.6 81.6 46.4-49.6 28.8-81.6-46.4-30.4 17.6 121.6 70.4-49.6 28.8-97.6-56v158.4l97.6-56 49.6 28.8-121.6 70.4 30.4 17.6 81.6-48 49.6 28.8-81.6 48 30.4 17.6 41.6-24 49.6 28.8-41.6 24z m-233.6-107.2V403.2L512 296l-187.2 107.2v216L512 728l187.2-108.8z m-94.4-52.8l92.8-54.4-92.8-54.4v-107.2L512 404.8l-92.8-54.4v107.2L324.8 512l92.8 54.4v107.2l92.8-54.4 92.8 54.4 1.6-107.2zM560 595.2l-48-27.2-48 27.2v-56L416 512l48-27.2v-56l48 27.2 48-27.2v56l48 27.2-48 27.2v56z" p-id="2975" fill="#e6e6e6"></path></svg>