<?xml version="1.0" standalone="no"?><!DOCTYPE svg PUBLIC "-//W3C//DTD SVG 1.1//EN" "http://www.w3.org/Graphics/SVG/1.1/DTD/svg11.dtd"><svg t="1534251966675" class="icon" style="" viewBox="0 0 1024 1024" version="1.1" xmlns="http://www.w3.org/2000/svg" p-id="2030" xmlns:xlink="http://www.w3.org/1999/xlink" width="200" height="200"><defs><style type="text/css"></style></defs><path d="M0 510.4c1.6 0 6.4-1.6 11.2-6.4 3.2-4.8 8-4.8 11.2-4.8-3.2-1.6-4.8-3.2-4.8-4.8-1.6-1.6-1.6-4.8-1.6-6.4v-3.2c1.6 1.6 3.2 3.2 6.4 3.2 1.6 0 1.6 0 3.2-1.6s3.2-1.6 4.8-1.6h4.8c-4.8-3.2-4.8-6.4-4.8-9.6 0-1.6 1.6-4.8 1.6-6.4v-1.6c0-1.6 0-1.6-1.6-1.6-1.6-1.6-3.2-1.6-4.8-1.6-3.2 0-4.8 1.6-6.4 1.6-1.6 0-1.6 1.6-1.6 1.6 4.8-9.6 9.6-12.8 14.4-12.8 3.2 0 6.4 1.6 8 3.2 0-3.2 1.6-6.4 1.6-9.6 4.8-12.8 14.4-17.6 22.4-17.6 9.6 0 17.6 4.8 17.6 12.8 0 3.2-1.6 6.4-4.8 9.6v-3.2c0-3.2-1.6-6.4-8-6.4-11.2 0-17.6 6.4-17.6 19.2v6.4c3.2 14.4 24 35.2 65.6 41.6H448l-11.2-6.4h-83.2l51.2-12.8-104-22.4c-22.4-1.6-36.8 8-40 14.4 0 1.6-1.6 1.6-1.6 3.2-1.6 6.4 1.6 11.2 8 12.8 3.2 0 4.8-1.6 4.8-3.2v-1.6c1.6 1.6 1.6 4.8 1.6 6.4-1.6 3.2-6.4 6.4-11.2 4.8-4.8-1.6-9.6-4.8-9.6-11.2v-6.4c-1.6 0-3.2 1.6-4.8 0-3.2 0-4.8-3.2-6.4-8 0 0 1.6 3.2 4.8 3.2h3.2s1.6 0 1.6-1.6V480v-3.2c0-1.6 1.6-3.2 3.2-4.8h-1.6s-1.6 0-1.6-1.6l-1.6-1.6h-3.2-1.6v-1.6c0-1.6 0-1.6 1.6-3.2 0 0 1.6-1.6 3.2-1.6-1.6 0-4.8-1.6-6.4-4.8-1.6-1.6-1.6-3.2-3.2-4.8h-1.6s3.2 0 6.4-3.2c1.6-1.6 4.8-1.6 6.4-1.6-1.6-1.6-1.6-1.6-1.6-3.2v-3.2-1.6s1.6 1.6 3.2 1.6h3.2s1.6 0 1.6 1.6c-1.6-1.6-1.6-4.8-1.6-4.8 0-1.6 1.6-1.6 1.6-3.2l1.6-1.6V432l-1.6-1.6h-3.2-1.6c3.2-4.8 6.4-6.4 9.6-4.8 1.6 0 3.2 1.6 4.8 3.2 0-1.6 1.6-3.2 1.6-4.8 3.2-6.4 9.6-8 14.4-6.4 4.8 1.6 9.6 4.8 8 9.6 0 1.6-1.6 3.2-4.8 4.8v-1.6c0-1.6 0-3.2-3.2-4.8-6.4-1.6-11.2 1.6-12.8 8v3.2c0 8 9.6 20.8 30.4 30.4l110.4 24 12.8-3.2-24-19.2 32 14.4 6.4-1.6V480L240 390.4c-30.4-8-51.2 0-57.6 8-1.6 1.6-1.6 3.2-3.2 4.8-3.2 8 0 16 6.4 19.2 4.8 1.6 6.4 0 8-1.6v-1.6-1.6c1.6 3.2 1.6 6.4 0 8-1.6 4.8-9.6 6.4-16 3.2s-11.2-9.6-9.6-19.2c0-3.2 1.6-4.8 1.6-8h-6.4c-3.2-1.6-6.4-6.4-6.4-12.8 0 1.6 1.6 4.8 4.8 4.8h3.2c1.6 0 1.6 0 1.6-1.6v-3.2-4.8c1.6-1.6 3.2-3.2 6.4-4.8-1.6 0-1.6 0-3.2-1.6-1.6 0-1.6-1.6-3.2-1.6 0 0 0-1.6-1.6-1.6h-3.2-1.6v-3.2c0-1.6 1.6-3.2 3.2-3.2s3.2-1.6 4.8-1.6c-1.6-1.6-4.8-3.2-6.4-8 0-3.2-1.6-4.8-3.2-6.4l-1.6-1.6c1.6 0 4.8 1.6 9.6-1.6 3.2-1.6 8-1.6 9.6 0-1.6-1.6-1.6-3.2-1.6-4.8v-4.8c0-1.6 1.6-3.2 1.6-3.2 0 1.6 1.6 3.2 3.2 3.2H184c1.6 0 1.6 1.6 3.2 1.6 4.8 1.6 4.8 0 4.8-3.2 0-1.6 1.6-3.2 3.2-3.2l1.6-1.6v-1.6c0-1.6-1.6-1.6-3.2-3.2h-4.8-1.6c6.4-4.8 11.2-6.4 14.4-3.2l4.8 4.8c1.6-1.6 3.2-4.8 4.8-6.4 6.4-6.4 14.4-8 20.8-4.8s11.2 9.6 8 14.4c-1.6 1.6-3.2 3.2-6.4 4.8l1.6-1.6c1.6-1.6 1.6-4.8-3.2-6.4-8-3.2-14.4 0-19.2 8 0 1.6-1.6 3.2-1.6 4.8-3.2 9.6 4.8 32 32 48l193.6 88-3.2-6.4-25.6-11.2 20.8 3.2-32-54.4 59.2 59.2 9.6 1.6-235.2-236.8c-33.6-24-64-25.6-75.2-17.6l-4.8 4.8c-8 8-8 19.2 0 27.2 4.8 4.8 8 3.2 11.2 1.6l1.6-1.6v-1.6c0 4.8-1.6 8-3.2 11.2-4.8 4.8-14.4 3.2-22.4-3.2-6.4-6.4-9.6-16-4.8-28.8 1.6-3.2 3.2-6.4 6.4-9.6-3.2 0-6.4-1.6-8-3.2-3.2-4.8-4.8-11.2-1.6-20.8 0 1.6 0 6.4 3.2 9.6 1.6 1.6 3.2 1.6 4.8 1.6h3.2s1.6-1.6 1.6-3.2 1.6-3.2 3.2-4.8c3.2-1.6 4.8-3.2 11.2-3.2-1.6 0-3.2-1.6-3.2-3.2-1.6-1.6-1.6-1.6-1.6-3.2s0-1.6-1.6-3.2-3.2-1.6-4.8-1.6H144s0-1.6 1.6-3.2 3.2-3.2 4.8-3.2c1.6 0 4.8 0 6.4 1.6-1.6-1.6-4.8-6.4-4.8-12.8 0-3.2 0-6.4-1.6-9.6 0-1.6-1.6-1.6-1.6-3.2 1.6 0 4.8 3.2 12.8 3.2 4.8-1.6 9.6 1.6 12.8 4.8-1.6-3.2-1.6-4.8-1.6-6.4 0-3.2 1.6-4.8 3.2-4.8 1.6-1.6 3.2-1.6 3.2-1.6 0 1.6 0 4.8 1.6 6.4 0 0 1.6 1.6 3.2 1.6s3.2 1.6 3.2 1.6c4.8-1.6 4.8 0 4.8 0 0-4.8 0-8 3.2-9.6 1.6-1.6 3.2-1.6 4.8-3.2 1.6 0 3.2-1.6 4.8-1.6 0 0 1.6-1.6 0-3.2 0-1.6-1.6-3.2-1.6-4.8-1.6-1.6-4.8-3.2-6.4-3.2h-1.6c9.6-3.2 16-1.6 19.2 1.6 1.6 1.6 3.2 4.8 3.2 8 3.2-1.6 4.8-3.2 8-4.8 11.2-6.4 22.4-1.6 28.8 4.8 6.4 6.4 9.6 16 3.2 22.4-1.6 1.6-6.4 3.2-11.2 3.2 0 0 1.6 0 3.2-1.6s3.2-4.8-1.6-11.2c-8-8-17.6-8-27.2 0l-4.8 4.8c-8 11.2-8 41.6 16 75.2l235.2 235.2-3.2-14.4-59.2-59.2 46.4 27.2-57.6-89.6c-16-17.6-32-20.8-38.4-17.6-1.6 0-1.6 1.6-3.2 1.6-6.4 3.2-6.4 9.6-3.2 14.4 1.6 3.2 4.8 3.2 4.8 1.6 0 0 1.6 0 1.6-1.6 0 3.2-1.6 4.8-3.2 4.8-3.2 1.6-8 0-11.2-4.8-3.2-4.8-3.2-9.6 1.6-16l4.8-4.8c-1.6 0-3.2-1.6-3.2-3.2-1.6-3.2-1.6-6.4 1.6-11.2v4.8l1.6 1.6h1.6l1.6-1.6c0-1.6 1.6-1.6 1.6-3.2 1.6-1.6 3.2-1.6 6.4 0l-1.6-1.6v-1.6-1.6l-1.6-1.6h-1.6l1.6-1.6c1.6 0 1.6-1.6 3.2-1.6s1.6 0 3.2 1.6c-1.6-1.6-1.6-4.8-1.6-6.4 1.6-1.6 1.6-3.2 0-4.8v-1.6s3.2 3.2 6.4 3.2 4.8 1.6 6.4 3.2v-3.2c0-1.6 1.6-1.6 1.6-3.2 1.6 0 1.6-1.6 1.6-1.6v3.2l1.6 1.6c1.6 0 1.6 1.6 1.6 1.6s0 1.6 1.6 1.6c0-3.2 1.6-4.8 3.2-4.8s1.6-1.6 3.2-1.6h1.6v-1.6-3.2c0-1.6-1.6-1.6-3.2-1.6H384c4.8 0 8 0 9.6 3.2 1.6 1.6 1.6 3.2 1.6 4.8 1.6-1.6 3.2-1.6 4.8-1.6 6.4-1.6 12.8 1.6 14.4 4.8 3.2 4.8 3.2 9.6 0 12.8-1.6 1.6-3.2 1.6-6.4 0h1.6c1.6-1.6 3.2-3.2 0-6.4-3.2-4.8-8-6.4-14.4-3.2-1.6 0-1.6 1.6-3.2 1.6-4.8 4.8-9.6 20.8 0 43.2l60.8 94.4 11.2 6.4v-25.6l12.8 33.6 4.8 3.2v-1.6l-76.8-203.2c-16-27.2-36.8-36.8-46.4-35.2-1.6 0-3.2 0-4.8 1.6-8 3.2-11.2 11.2-8 17.6 1.6 4.8 4.8 4.8 6.4 4.8 0 0 1.6 0 1.6-1.6-1.6 3.2-3.2 4.8-4.8 6.4-4.8 1.6-11.2-3.2-14.4-9.6-1.6-6.4-1.6-14.4 6.4-20.8 1.6-1.6 4.8-3.2 6.4-4.8l-4.8-4.8c-1.6-3.2 0-8 4.8-14.4 0 0-1.6 4.8 0 6.4 0 1.6 1.6 1.6 1.6 3.2h1.6s1.6-1.6 3.2-1.6l3.2-3.2c1.6 0 4.8 0 8 1.6 0 0-1.6-1.6-1.6-3.2v-3.2-1.6c0-1.6-1.6-1.6-1.6-3.2h-1.6s1.6-1.6 3.2-1.6h4.8c1.6 0 3.2 1.6 4.8 3.2-1.6-1.6-1.6-6.4 0-9.6 1.6-3.2 1.6-4.8 1.6-6.4v-1.6s3.2 4.8 8 4.8c4.8 1.6 6.4 4.8 6.4 6.4 0-1.6 0-3.2 1.6-4.8l3.2-3.2h3.2c0 1.6-1.6 3.2 0 4.8 0 0 0 1.6 1.6 1.6s1.6 1.6 1.6 3.2v3.2c1.6-3.2 3.2-4.8 4.8-6.4h8s1.6 0 1.6-1.6v-3.2c0-1.6-1.6-3.2-3.2-3.2 0 0-1.6 0-1.6-1.6 8 0 11.2 3.2 12.8 6.4v6.4c1.6 0 4.8-1.6 8-1.6 9.6 0 16 4.8 17.6 11.2 3.2 6.4 1.6 14.4-4.8 16-1.6 1.6-4.8 0-8-1.6h3.2c1.6-1.6 4.8-3.2 1.6-8-3.2-8-9.6-11.2-19.2-8-1.6 0-3.2 1.6-4.8 1.6-9.6 4.8-17.6 25.6-11.2 57.6L483.2 432l1.6-8-9.6-25.6 11.2 17.6 16-62.4v84.8l6.4 8V116.8c-6.4-41.6-27.2-62.4-41.6-65.6h-6.4c-12.8 0-19.2 8-19.2 17.6 0 8 3.2 8 6.4 8H452.8c-3.2 3.2-6.4 4.8-9.6 4.8-8 0-12.8-8-12.8-17.6 0-8 4.8-19.2 17.6-22.4 3.2-1.6 6.4-1.6 11.2-1.6-1.6-3.2-3.2-4.8-3.2-8 0-4.8 3.2-11.2 12.8-14.4-1.6 0-4.8 4.8-4.8 8 0 1.6 0 3.2 1.6 4.8 0 1.6 1.6 1.6 1.6 1.6 1.6 0 3.2 0 4.8-1.6 1.6 0 3.2-1.6 6.4-1.6s6.4 1.6 9.6 4.8v-4.8c0-1.6 0-3.2 1.6-4.8 0 0 1.6-1.6 1.6-3.2s0-3.2-1.6-4.8c0 0 0-1.6-1.6-1.6h3.2c1.6 0 3.2 0 6.4 1.6l4.8 4.8c0-3.2 1.6-8 4.8-11.2 3.2-1.6 4.8-4.8 6.4-6.4 0-1.6 0-1.6 1.6-3.2 0 1.6 1.6 6.4 6.4 11.2 4.8 3.2 4.8 8 4.8 11.2 1.6-3.2 3.2-4.8 4.8-4.8 0-1.6 3.2-1.6 4.8-1.6h3.2c-1.6 1.6-3.2 3.2-3.2 6.4 0 1.6 0 1.6 1.6 3.2s1.6 3.2 1.6 4.8v4.8c3.2-4.8 6.4-4.8 9.6-4.8 1.6 0 4.8 1.6 6.4 1.6h1.6c1.6 0 1.6 0 1.6-1.6 1.6-1.6 1.6-3.2 1.6-4.8 0-3.2-1.6-4.8-1.6-6.4l-1.6-1.6c9.6 4.8 12.8 9.6 12.8 14.4 0 3.2-1.6 6.4-3.2 8 3.2 0 6.4 1.6 9.6 1.6 12.8 4.8 17.6 14.4 17.6 22.4 0 9.6-4.8 17.6-12.8 17.6-3.2 0-6.4-1.6-9.6-4.8h3.2c3.2 0 6.4-1.6 6.4-8 0-11.2-6.4-17.6-19.2-17.6h-6.4c-14.4 3.2-35.2 24-41.6 65.6V448l6.4-11.2v-83.2l12.8 51.2 22.4-104c1.6-22.4-8-36.8-14.4-40-1.6 0-1.6-1.6-3.2-1.6-6.4-1.6-11.2 1.6-12.8 8 0 3.2 1.6 4.8 3.2 4.8h1.6c-1.6 1.6-4.8 1.6-6.4 1.6-3.2-1.6-6.4-6.4-4.8-11.2 1.6-4.8 4.8-9.6 11.2-9.6h6.4c0-1.6-1.6-3.2 0-4.8 0-3.2 3.2-4.8 8-6.4 0 0-3.2 1.6-3.2 4.8v3.2s0 1.6 1.6 1.6H547.2c1.6 0 3.2 1.6 4.8 3.2v-1.6c0-1.6 0-1.6 1.6-1.6v-1.6-3.2-1.6h1.6c1.6 0 1.6 0 3.2 1.6 0 0 1.6 1.6 1.6 3.2 0-1.6 1.6-4.8 4.8-6.4 1.6-1.6 3.2-1.6 3.2-3.2v-1.6s0 3.2 3.2 6.4c1.6 1.6 1.6 4.8 1.6 6.4 1.6-1.6 1.6-1.6 3.2-1.6H580.8s-1.6 1.6-1.6 3.2V257.6s0 1.6-1.6 1.6c1.6-1.6 4.8-1.6 4.8-1.6 1.6 0 1.6 1.6 3.2 1.6l1.6 1.6h1.6l1.6-1.6V256v-1.6c4.8 3.2 6.4 6.4 4.8 9.6 0 1.6-1.6 3.2-1.6 4.8 1.6 0 3.2 1.6 4.8 1.6 6.4 3.2 8 9.6 6.4 14.4-1.6 4.8-4.8 9.6-9.6 8-1.6 0-3.2-1.6-4.8-4.8h1.6c1.6 0 3.2 0 4.8-3.2 1.6-6.4-1.6-11.2-8-11.2h-3.2c-8 0-20.8 9.6-30.4 30.4l-24 110.4 3.2 12.8 17.6-22.4-14.4 32 1.6 6.4h1.6L633.6 240c8-30.4 0-51.2-8-57.6-1.6-1.6-3.2-1.6-4.8-3.2-8-3.2-16 0-19.2 6.4-1.6 4.8 0 6.4 1.6 8h3.2c-3.2 1.6-6.4 1.6-8 0-4.8-1.6-6.4-9.6-3.2-16s9.6-11.2 19.2-9.6c3.2 0 4.8 1.6 8 1.6v-6.4c1.6-3.2 6.4-6.4 12.8-6.4 0 0-4.8 1.6-4.8 4.8v3.2c0 1.6 0 1.6 1.6 1.6h8c1.6 1.6 3.2 3.2 4.8 6.4 0-1.6 0-1.6 1.6-3.2 0-1.6 1.6-1.6 1.6-3.2 0 0 1.6 0 1.6-1.6v-3.2-1.6h3.2c1.6 0 3.2 1.6 3.2 3.2s1.6 3.2 1.6 4.8c1.6-1.6 3.2-4.8 8-6.4 3.2 0 4.8-1.6 6.4-3.2l1.6-1.6c0 1.6-1.6 4.8 1.6 9.6 1.6 3.2 1.6 8 0 9.6 1.6-1.6 3.2-1.6 4.8-1.6h4.8c1.6 0 1.6 1.6 1.6 1.6-1.6 0-3.2 1.6-3.2 3.2V184c0 1.6-1.6 1.6-1.6 3.2 3.2-1.6 6.4-1.6 8-1.6 1.6 0 3.2 1.6 3.2 3.2l1.6 1.6h1.6c1.6 0 1.6-1.6 3.2-3.2v-4.8-1.6c4.8 6.4 6.4 11.2 3.2 14.4l-4.8 4.8c1.6 1.6 4.8 3.2 6.4 4.8 6.4 6.4 8 14.4 4.8 20.8s-9.6 11.2-14.4 8c-1.6-1.6-3.2-3.2-4.8-6.4l1.6 1.6c1.6 1.6 4.8 1.6 6.4-3.2 3.2-8 0-14.4-8-19.2-1.6 0-3.2-1.6-4.8-1.6-9.6-3.2-32 4.8-48 32l-88 193.6 6.4-3.2 11.2-25.6-3.2 20.8 54.4-32-59.2 59.2-1.6 14.4 233.6-233.6c24-33.6 25.6-64 17.6-75.2l-4.8-4.8c-8-8-19.2-8-27.2 0-4.8 4.8-3.2 8-1.6 11.2l1.6 1.6h1.6c-4.8 0-8-1.6-11.2-3.2-4.8-4.8-3.2-14.4 3.2-22.4 6.4-6.4 16-9.6 28.8-4.8 3.2 1.6 6.4 3.2 9.6 6.4 0-3.2 1.6-6.4 3.2-8 4.8-3.2 11.2-4.8 20.8-1.6-1.6 0-6.4 0-9.6 3.2-1.6 1.6-1.6 3.2-1.6 4.8v3.2s1.6 1.6 3.2 1.6 3.2 1.6 4.8 3.2c1.6 3.2 3.2 4.8 3.2 11.2 0-1.6 1.6-3.2 3.2-3.2 1.6-1.6 1.6-1.6 3.2-1.6s1.6 0 3.2-1.6 1.6-3.2 1.6-4.8V144s1.6 0 3.2 1.6 3.2 3.2 3.2 4.8c0 1.6 0 4.8-1.6 6.4 3.2-1.6 6.4-4.8 12.8-4.8 3.2 0 6.4 0 9.6-1.6 1.6 0 1.6-1.6 3.2-1.6 0 1.6-3.2 4.8-3.2 12.8 1.6 4.8-1.6 9.6-4.8 12.8 3.2-1.6 4.8-1.6 6.4-1.6 3.2 0 4.8 1.6 4.8 3.2 1.6 1.6 1.6 3.2 1.6 3.2-1.6 0-4.8 0-6.4 1.6 0 0-1.6 1.6-1.6 3.2s-1.6 3.2-1.6 3.2c1.6 4.8 0 4.8 0 4.8 4.8 0 8 0 9.6 3.2 1.6 1.6 1.6 3.2 3.2 4.8 0 1.6 1.6 3.2 1.6 4.8 0 0 1.6 1.6 3.2 0 1.6 0 3.2-1.6 4.8-1.6 1.6-1.6 3.2-4.8 3.2-6.4v-1.6c3.2 9.6 1.6 16-1.6 19.2-1.6 1.6-4.8 3.2-8 3.2 1.6 3.2 3.2 4.8 4.8 8 6.4 11.2 1.6 22.4-4.8 28.8-6.4 6.4-16 9.6-22.4 3.2-1.6-1.6-3.2-6.4-3.2-11.2 0 0 0 1.6 1.6 3.2s4.8 3.2 11.2-1.6c8-8 8-17.6 0-27.2l-4.8-4.8c-11.2-8-41.6-8-75.2 16L558.4 468.8l12.8-4.8 59.2-59.2-27.2 46.4 89.6-57.6c17.6-16 20.8-32 17.6-38.4 0-1.6-1.6-1.6-1.6-3.2-3.2-6.4-9.6-6.4-14.4-3.2-3.2 1.6-3.2 4.8-1.6 4.8 0 0 0 1.6 1.6 1.6-3.2 0-4.8-1.6-4.8-3.2-1.6-3.2 0-8 4.8-11.2 4.8-3.2 9.6-3.2 16 1.6l4.8 4.8c0-1.6 1.6-3.2 3.2-3.2 3.2-1.6 6.4-1.6 11.2 1.6h-4.8l-1.6 1.6v1.6l1.6 1.6c1.6 0 1.6 1.6 3.2 1.6 1.6 1.6 1.6 3.2 0 6.4l1.6-1.6h3.2l1.6-1.6v-1.6l1.6 1.6c0 1.6 1.6 1.6 1.6 3.2s0 1.6-1.6 3.2c1.6-1.6 4.8-1.6 6.4-1.6 1.6 1.6 3.2 1.6 4.8 0h1.6s-3.2 3.2-3.2 6.4-1.6 4.8-3.2 6.4h3.2c1.6 0 1.6 1.6 3.2 1.6 0 1.6 1.6 1.6 1.6 1.6h-3.2l-1.6 1.6c0 1.6 0 1.6-1.6 1.6 0 0-1.6 0-1.6 1.6 3.2 0 4.8 1.6 4.8 3.2s1.6 1.6 1.6 3.2v1.6H753.6c1.6 0 1.6-1.6 1.6-3.2V384c0 4.8 0 8-3.2 9.6-1.6 1.6-3.2 1.6-4.8 1.6 1.6 1.6 1.6 3.2 1.6 4.8 1.6 6.4-1.6 12.8-4.8 14.4-4.8 3.2-9.6 3.2-12.8 0-1.6-1.6-1.6-3.2 0-6.4v1.6c1.6 1.6 3.2 3.2 6.4 0 4.8-3.2 6.4-8 3.2-14.4 0-1.6-1.6-1.6-1.6-3.2-4.8-6.4-20.8-9.6-43.2 0l-94.4 60.8-6.4 11.2 27.2-3.2-33.6 12.8-3.2 4.8h1.6l203.2-76.8c27.2-16 36.8-36.8 35.2-46.4 0-1.6 0-3.2-1.6-4.8-3.2-8-11.2-11.2-17.6-8-6.4 4.8-6.4 8-4.8 9.6 0 0 0 1.6 1.6 1.6-3.2-1.6-4.8-3.2-6.4-4.8-1.6-4.8 3.2-11.2 9.6-14.4 6.4-1.6 14.4-1.6 20.8 6.4 1.6 1.6 3.2 4.8 4.8 6.4l4.8-4.8c3.2-1.6 8 0 14.4 4.8 0 0-4.8-1.6-6.4 0-1.6 0-1.6 1.6-3.2 1.6v1.6s1.6 1.6 1.6 3.2l3.2 3.2c0 1.6 0 4.8-1.6 8 0 0 1.6-1.6 3.2-1.6H852.8c1.6 0 1.6-1.6 3.2-1.6v-1.6s1.6 1.6 1.6 3.2v4.8c0 1.6-1.6 3.2-3.2 4.8 1.6 0 6.4-1.6 9.6 0 3.2 1.6 4.8 1.6 6.4 1.6h1.6s-4.8 3.2-4.8 8c-1.6 4.8-4.8 6.4-6.4 6.4 1.6 0 3.2 0 4.8 1.6l3.2 3.2v3.2c-1.6 0-3.2-1.6-4.8 0 0 0-1.6 0-1.6 1.6s-1.6 1.6-3.2 1.6h-3.2c3.2 1.6 4.8 3.2 6.4 4.8v8s0 1.6 1.6 1.6h3.2c1.6 0 3.2-1.6 3.2-3.2 0 0 0-1.6 1.6-1.6 0 8-3.2 11.2-6.4 12.8h-6.4c0 1.6 1.6 4.8 1.6 8 0 9.6-4.8 16-11.2 17.6-6.4 3.2-14.4 1.6-16-4.8-1.6-1.6 0-4.8 1.6-8v3.2c1.6 1.6 3.2 4.8 8 1.6 8-3.2 11.2-9.6 8-19.2 0-1.6-1.6-3.2-1.6-4.8-4.8-9.6-25.6-17.6-57.6-11.2L592 483.2l8 1.6 25.6-9.6-17.6 11.2 62.4 16h-84.8l-8 6.4h329.6c41.6-6.4 62.4-27.2 65.6-41.6v-6.4c0-12.8-8-19.2-17.6-19.2-8 0-8 3.2-8 6.4V452.8c-3.2-3.2-4.8-6.4-4.8-9.6 0-8 8-12.8 17.6-12.8 8 0 19.2 4.8 22.4 17.6 1.6 3.2 1.6 6.4 1.6 11.2 3.2-1.6 4.8-3.2 8-3.2 4.8 0 11.2 3.2 14.4 12.8-1.6-1.6-4.8-4.8-8-4.8-1.6 0-3.2 0-4.8 1.6-1.6 0-1.6 1.6-1.6 1.6 0 1.6 0 3.2 1.6 4.8 0 1.6 1.6 3.2 1.6 6.4s-1.6 6.4-4.8 9.6h4.8c1.6 0 3.2 0 4.8 1.6 0 0 1.6 1.6 3.2 1.6s3.2 0 4.8-1.6c0 0 1.6 0 1.6-1.6v3.2c0 1.6 0 3.2-1.6 6.4l-4.8 4.8c3.2 0 8 1.6 11.2 4.8 1.6 3.2 4.8 4.8 6.4 6.4 1.6 0 1.6 0 3.2 1.6-1.6 0-6.4 1.6-11.2 6.4-3.2 4.8-8 4.8-11.2 4.8 3.2 1.6 4.8 3.2 4.8 4.8 1.6 1.6 1.6 4.8 1.6 6.4v3.2c-1.6-1.6-3.2-3.2-6.4-3.2-1.6 0-1.6 0-3.2 1.6s-3.2 1.6-4.8 1.6h-4.8c4.8 3.2 4.8 6.4 4.8 9.6 0 1.6-1.6 4.8-1.6 6.4 0 1.6-1.6 3.2-1.6 4.8 0 1.6 0 1.6 1.6 1.6 1.6 1.6 3.2 1.6 4.8 1.6 3.2 0 4.8-1.6 6.4-1.6 1.6 0 1.6-1.6 1.6-1.6-4.8 9.6-9.6 12.8-14.4 12.8-3.2 0-6.4-1.6-8-3.2 0 3.2-1.6 6.4-1.6 9.6-4.8 12.8-14.4 17.6-22.4 17.6-9.6 0-17.6-4.8-17.6-12.8 0-3.2 1.6-6.4 4.8-9.6v3.2c0 3.2 1.6 6.4 8 6.4 11.2 0 17.6-6.4 17.6-19.2V560c-3.2-14.4-24-35.2-65.6-41.6H576l12.8 6.4H672l-51.2 12.8 105.6 22.4c22.4 1.6 36.8-8 40-14.4 0-1.6 1.6-1.6 1.6-3.2 1.6-6.4-1.6-11.2-8-12.8-3.2 0-4.8 1.6-4.8 3.2v1.6c-1.6-1.6-1.6-4.8-1.6-6.4 1.6-3.2 6.4-6.4 11.2-4.8 4.8 1.6 9.6 4.8 9.6 11.2v6.4c1.6 0 3.2-1.6 4.8 0 3.2 0 4.8 3.2 6.4 8 0 0-1.6-3.2-4.8-3.2h-3.2s-1.6 0-1.6 1.6v6.4c0 1.6-1.6 3.2-3.2 4.8h1.6c1.6 0 1.6 0 1.6 1.6l1.6 1.6H782.4v1.6c0 1.6 0 1.6-1.6 3.2 0 0-1.6 1.6-3.2 1.6 1.6 0 4.8 1.6 6.4 4.8 1.6 1.6 1.6 3.2 3.2 3.2h1.6s-3.2 0-6.4 3.2c-1.6 1.6-4.8 1.6-6.4 1.6 1.6 1.6 1.6 1.6 1.6 3.2V588.8s-1.6-1.6-3.2-1.6h-1.6-1.6s-1.6 0-1.6-1.6c1.6 1.6 1.6 4.8 1.6 4.8 0 1.6-1.6 1.6-1.6 3.2l-1.6 1.6v1.6l1.6 1.6H774.4c-3.2 4.8-6.4 6.4-9.6 4.8-1.6 0-3.2-1.6-4.8-3.2 0 1.6-1.6 3.2-1.6 4.8-3.2 6.4-9.6 8-14.4 6.4-4.8-1.6-9.6-4.8-8-9.6 0-1.6 1.6-3.2 4.8-4.8v1.6c0 1.6 0 3.2 3.2 4.8 6.4 1.6 11.2-1.6 12.8-8V592c0-8-9.6-20.8-30.4-30.4l-110.4-24-12.8 3.2 22.4 17.6-32-14.4-6.4 1.6v1.6L784 633.6c30.4 8 51.2 0 57.6-8 1.6-1.6 1.6-3.2 1.6-4.8 3.2-8 0-16-6.4-19.2-4.8-1.6-6.4 0-8 1.6v3.2c-1.6-3.2-1.6-6.4 0-8 1.6-4.8 9.6-6.4 16-3.2s11.2 9.6 9.6 19.2c0 3.2-1.6 4.8-1.6 8h6.4c3.2 1.6 6.4 6.4 6.4 12.8 0-1.6-1.6-4.8-4.8-4.8h-3.2c-1.6 0-1.6 0-1.6 1.6v8c-1.6 1.6-3.2 3.2-6.4 4.8 1.6 0 1.6 0 3.2 1.6 1.6 0 1.6 1.6 3.2 1.6 0 0 0 1.6 1.6 1.6H862.4v3.2c0 1.6-1.6 3.2-3.2 3.2s-3.2 1.6-4.8 1.6c1.6 1.6 4.8 3.2 6.4 8 0 3.2 1.6 4.8 3.2 6.4l1.6 1.6c-1.6 0-4.8-1.6-9.6 1.6-3.2 1.6-8 1.6-9.6 0 1.6 1.6 1.6 3.2 1.6 4.8v4.8c0 1.6-1.6 1.6-1.6 3.2 0-1.6-1.6-3.2-3.2-3.2H838.4c-1.6 0-1.6-1.6-3.2-1.6 1.6 3.2 1.6 6.4 1.6 8 0 1.6-1.6 3.2-3.2 3.2l-1.6 1.6v1.6c0 1.6 1.6 1.6 3.2 3.2h6.4c-6.4 4.8-11.2 6.4-14.4 3.2l-4.8-4.8c-1.6 1.6-3.2 4.8-4.8 6.4-6.4 6.4-14.4 8-20.8 4.8s-11.2-9.6-8-14.4c1.6-1.6 3.2-3.2 6.4-4.8l-1.6 1.6c-1.6 1.6-1.6 4.8 3.2 6.4 8 3.2 14.4 0 19.2-8 0-1.6 1.6-3.2 1.6-4.8 3.2-9.6-4.8-32-32-48L592 550.4l3.2 6.4 25.6 11.2-20.8-3.2 32 54.4-59.2-59.2-12.8-3.2 233.6 233.6c33.6 24 64 24 75.2 16l4.8-4.8c8-8 8-19.2 1.6-27.2-4.8-4.8-8-3.2-11.2-1.6l-1.6 1.6v1.6c0-4.8 0-8 3.2-11.2 4.8-4.8 14.4-3.2 22.4 3.2 6.4 6.4 9.6 16 4.8 28.8-1.6 3.2-3.2 6.4-6.4 9.6 3.2 0 6.4 1.6 8 3.2 3.2 3.2 4.8 9.6 1.6 19.2 0-1.6 0-6.4-3.2-9.6-1.6-1.6-3.2-1.6-4.8-1.6h-3.2s-1.6 1.6-1.6 3.2-1.6 3.2-3.2 4.8c-1.6 1.6-4.8 3.2-9.6 3.2 1.6 0 3.2 1.6 3.2 3.2 1.6 1.6 1.6 1.6 1.6 3.2s0 1.6 1.6 3.2 3.2 1.6 4.8 1.6h1.6s0 1.6-1.6 3.2-3.2 3.2-4.8 3.2c-1.6 0-4.8 0-6.4-1.6 1.6 1.6 4.8 6.4 4.8 12.8 0 3.2 0 6.4 1.6 9.6 0 1.6 1.6 1.6 1.6 3.2-1.6 0-4.8-3.2-12.8-3.2-4.8 1.6-9.6-1.6-12.8-4.8 1.6 3.2 1.6 4.8 1.6 6.4 0 3.2-1.6 4.8-3.2 4.8-1.6 1.6-3.2 1.6-3.2 1.6 0-1.6 0-4.8-1.6-6.4 0 0-1.6-1.6-3.2-1.6s-3.2-1.6-3.2-1.6c-8 4.8-8 3.2-8 3.2 0 4.8 0 8-3.2 9.6-1.6 1.6-3.2 1.6-4.8 3.2-1.6 0-3.2 1.6-4.8 1.6 0 0-1.6 1.6 0 3.2 0 1.6 1.6 3.2 1.6 4.8 1.6 1.6 4.8 3.2 6.4 3.2h1.6c-9.6 3.2-16 1.6-19.2-1.6-1.6-1.6-3.2-4.8-3.2-8-3.2 1.6-4.8 3.2-8 4.8-11.2 6.4-22.4 1.6-28.8-4.8-6.4-6.4-9.6-16-3.2-22.4 1.6-1.6 6.4-3.2 11.2-3.2 0 0-1.6 0-3.2 1.6s-3.2 4.8 1.6 11.2c8 8 17.6 8 27.2 0l4.8-4.8c8-11.2 8-41.6-17.6-75.2L555.2 558.4l4.8 12.8 59.2 59.2-44.8-27.2 57.6 89.6c16 17.6 32 20.8 38.4 17.6 1.6 0 1.6-1.6 3.2-1.6 6.4-3.2 6.4-9.6 3.2-14.4-1.6-3.2-4.8-3.2-4.8-1.6 0 0-1.6 0-1.6 1.6 0-3.2 1.6-4.8 3.2-4.8 3.2-1.6 8 0 11.2 4.8 3.2 4.8 3.2 9.6-1.6 16l-4.8 4.8c1.6 0 3.2 1.6 3.2 3.2 1.6 3.2 1.6 6.4-1.6 11.2v-4.8l-1.6-1.6h-1.6l-1.6 1.6c0 1.6-1.6 1.6-1.6 3.2-1.6 1.6-3.2 1.6-6.4 0l1.6 1.6v3.2l1.6 1.6h1.6l-1.6 1.6c-1.6 0-1.6 1.6-3.2 1.6s-1.6 0-3.2-1.6c1.6 1.6 1.6 4.8 1.6 6.4 0 1.6-1.6 3.2 0 4.8v1.6s-3.2-3.2-6.4-3.2-4.8-1.6-6.4-3.2v3.2c0 1.6-1.6 1.6-1.6 3.2-1.6 0-1.6 1.6-1.6 1.6v-3.2l-1.6-1.6c-1.6 0-1.6-1.6-1.6-1.6s0-1.6-1.6-1.6c0 3.2-1.6 4.8-3.2 4.8s-1.6 1.6-3.2 1.6h-1.6V753.6c0 1.6 1.6 1.6 3.2 1.6h1.6c-4.8 0-8 0-9.6-3.2-1.6-1.6-1.6-3.2-1.6-4.8-1.6 1.6-3.2 1.6-4.8 1.6-6.4 1.6-12.8-1.6-14.4-4.8-3.2-4.8-3.2-9.6 0-12.8 1.6-1.6 3.2-1.6 6.4 0h-1.6c-1.6 1.6-3.2 3.2 0 6.4 3.2 4.8 8 6.4 14.4 3.2 1.6 0 1.6-1.6 3.2-1.6 6.4-4.8 9.6-20.8 0-43.2l-60.8-94.4-11.2-6.4 3.2 27.2-12.8-33.6-4.8-3.2v1.6L624 790.4c16 27.2 36.8 36.8 46.4 35.2 1.6 0 3.2 0 4.8-1.6 8-3.2 11.2-11.2 8-17.6-6.4-6.4-9.6-6.4-11.2-4.8 0 0-1.6 0-1.6 1.6 1.6-3.2 3.2-4.8 4.8-6.4 4.8-1.6 11.2 3.2 14.4 9.6 1.6 6.4 1.6 14.4-6.4 20.8-1.6 1.6-4.8 3.2-6.4 4.8l4.8 4.8c1.6 3.2 0 8-4.8 14.4 0 0 1.6-4.8 0-6.4 0-1.6-1.6-1.6-1.6-3.2h-1.6s-1.6 1.6-3.2 1.6l-3.2 3.2c-1.6 0-4.8 0-8-1.6 0 0 1.6 1.6 1.6 3.2V852.8c0 1.6 1.6 1.6 1.6 3.2h1.6s-1.6 1.6-3.2 1.6H656c-1.6 0-3.2-1.6-4.8-3.2 0 1.6 1.6 6.4 0 9.6-1.6 3.2-1.6 4.8-1.6 6.4v1.6s-3.2-4.8-8-4.8c-4.8-1.6-6.4-4.8-6.4-6.4 0 1.6 0 3.2-1.6 4.8l-3.2 3.2h-3.2c0-1.6 1.6-3.2 0-4.8 0 0 0-1.6-1.6-1.6s-1.6-1.6-1.6-3.2v-3.2c-1.6 3.2-3.2 4.8-4.8 6.4h-8s-1.6 0-1.6 1.6v3.2c0 1.6 1.6 3.2 3.2 3.2 0 0 1.6 0 1.6 1.6-8 0-11.2-3.2-12.8-6.4v-6.4c-1.6 0-4.8 1.6-8 1.6-9.6 0-16-4.8-17.6-11.2-3.2-6.4-1.6-14.4 4.8-16 1.6-1.6 4.8 0 8 1.6h-3.2c-1.6 1.6-4.8 3.2-1.6 8 3.2 8 9.6 11.2 19.2 8 1.6 0 3.2-1.6 4.8-1.6 9.6-4.8 17.6-25.6 11.2-57.6L540.8 592l-1.6 8 9.6 25.6-11.2-17.6-16 62.4v-84.8l-6.4-8v329.6c6.4 41.6 27.2 62.4 41.6 65.6h6.4c12.8 0 19.2-8 19.2-17.6 0-8-3.2-8-6.4-8h-3.2-1.6c3.2-3.2 6.4-4.8 9.6-4.8 8 0 12.8 8 12.8 17.6 0 8-4.8 19.2-17.6 22.4-3.2 1.6-6.4 1.6-11.2 1.6 1.6 3.2 3.2 4.8 3.2 8 0 4.8-3.2 11.2-12.8 14.4 1.6 0 4.8-4.8 4.8-8 0-1.6 0-3.2-1.6-4.8 0-1.6-1.6-1.6-1.6-1.6-1.6 0-3.2 0-4.8 1.6-1.6 0-3.2 1.6-6.4 1.6s-6.4-1.6-9.6-4.8v4.8c0 1.6 0 3.2-1.6 4.8 0 0-1.6 1.6-1.6 3.2s0 3.2 1.6 4.8c0 0 0 1.6 1.6 1.6h-3.2c-1.6 0-3.2 0-6.4-1.6l-4.8-4.8c0 3.2-1.6 8-4.8 11.2-3.2 1.6-4.8 4.8-6.4 6.4 0 1.6 0 1.6-1.6 3.2 0-1.6-1.6-6.4-6.4-11.2-4.8-3.2-4.8-8-4.8-11.2-1.6 3.2-3.2 4.8-4.8 4.8 0 1.6-3.2 1.6-4.8 1.6h-3.2c1.6-1.6 3.2-3.2 3.2-6.4 0-1.6 0-1.6-1.6-3.2s-1.6-3.2-1.6-4.8v-4.8c-3.2 4.8-6.4 4.8-9.6 4.8-1.6 0-4.8-1.6-6.4-1.6-1.6 0-3.2-1.6-4.8-1.6-1.6 0-1.6 0-1.6 1.6 1.6 3.2 1.6 4.8 1.6 6.4 0 3.2 1.6 4.8 1.6 6.4 0 1.6 1.6 1.6 1.6 1.6-9.6-4.8-12.8-9.6-12.8-14.4 0-3.2 1.6-6.4 3.2-8-3.2 0-6.4-1.6-9.6-1.6-12.8-4.8-17.6-14.4-17.6-22.4 0-9.6 4.8-17.6 12.8-17.6 3.2 0 6.4 1.6 9.6 4.8h-3.2c-3.2 0-6.4 1.6-6.4 8 0 11.2 6.4 17.6 19.2 17.6h6.4c14.4-3.2 35.2-24 41.6-65.6V576l-6.4 12.8V672l-12.8-51.2-22.4 105.6c-1.6 22.4 8 36.8 14.4 40 1.6 0 1.6 1.6 3.2 1.6 6.4 1.6 11.2-1.6 12.8-8 0-3.2-1.6-4.8-1.6-4.8H496c1.6-1.6 4.8-1.6 6.4-1.6 3.2 1.6 6.4 6.4 4.8 11.2-1.6 4.8-4.8 9.6-11.2 9.6h-6.4c0 1.6 1.6 3.2 0 4.8 0 3.2-3.2 4.8-8 6.4 0 0 3.2-1.6 3.2-4.8v-3.2s0-1.6-1.6-1.6h-6.4c-1.6 0-3.2-1.6-4.8-3.2v1.6c0 1.6 0 1.6-1.6 1.6v6.4h-1.6c-1.6 0-1.6 0-3.2-1.6 0 0-1.6-1.6-1.6-3.2 0 1.6-1.6 4.8-4.8 6.4-1.6 1.6-3.2 1.6-3.2 3.2v1.6s0-3.2-3.2-6.4c-1.6-1.6-1.6-4.8-1.6-6.4-1.6 1.6-1.6 1.6-3.2 1.6H443.2s1.6-1.6 1.6-3.2v-1.6-3.2s0-1.6 1.6-1.6c-1.6 1.6-4.8 1.6-4.8 1.6-1.6 0-1.6-1.6-3.2-1.6l-1.6-1.6h-1.6l-1.6 1.6V772.8c-4.8-3.2-6.4-6.4-4.8-9.6 0-1.6 1.6-3.2 1.6-4.8-1.6 0-3.2-1.6-4.8-1.6-6.4-3.2-8-9.6-6.4-14.4 1.6-4.8 4.8-9.6 9.6-8 1.6 0 3.2 1.6 4.8 4.8H432c-1.6 0-3.2 0-4.8 3.2-1.6 6.4 1.6 11.2 8 12.8h3.2c8 0 20.8-9.6 30.4-30.4l24-110.4-3.2-12.8-20.8 22.4 14.4-32-1.6-6.4H480L390.4 784c-8 30.4 0 51.2 8 57.6 1.6 1.6 3.2 1.6 4.8 1.6 8 3.2 16 0 19.2-6.4 1.6-4.8 0-6.4-1.6-8h-1.6-1.6c3.2-1.6 6.4-1.6 8 0 4.8 1.6 6.4 9.6 3.2 16s-9.6 11.2-19.2 9.6c-3.2 0-4.8-1.6-8-1.6v6.4c-1.6 3.2-6.4 6.4-12.8 6.4 0 0 4.8-1.6 4.8-4.8v-3.2c0-1.6 0-1.6-1.6-1.6H384c-1.6-1.6-3.2-3.2-4.8-6.4 0 1.6 0 1.6-1.6 3.2 0 1.6-1.6 1.6-1.6 3.2 0 0-1.6 0-1.6 1.6V862.4h-3.2c-1.6 0-3.2-1.6-3.2-3.2s-1.6-3.2-1.6-4.8c-1.6 1.6-3.2 4.8-8 6.4-3.2 0-4.8 1.6-6.4 3.2l-1.6 1.6c0-1.6 1.6-4.8-1.6-9.6-1.6-3.2-1.6-8 0-9.6-1.6 1.6-3.2 1.6-4.8 1.6h-4.8c-1.6 0-1.6-1.6-1.6-1.6 1.6 0 3.2-1.6 3.2-3.2v-1.6-3.2c0-1.6 1.6-1.6 1.6-3.2 0-3.2-1.6-3.2-4.8-3.2-1.6 0-3.2-1.6-3.2-3.2l-1.6-1.6h-1.6c-1.6 0-1.6 1.6-3.2 3.2v6.4c-4.8-6.4-6.4-11.2-3.2-14.4l4.8-4.8c-1.6-1.6-4.8-3.2-6.4-4.8-6.4-6.4-8-14.4-4.8-20.8s9.6-11.2 14.4-8c1.6 1.6 3.2 3.2 4.8 6.4l-1.6-1.6c-1.6-1.6-4.8-1.6-6.4 3.2-3.2 8 0 14.4 8 19.2 1.6 0 3.2 1.6 4.8 1.6 9.6 3.2 32-6.4 49.6-32L480 587.2l-6.4 3.2-11.2 25.6 3.2-20.8-54.4 32 59.2-59.2 1.6-9.6-238.4 235.2c-24 33.6-24 64-16 75.2l4.8 4.8c8 8 19.2 8 27.2 0 4.8-4.8 3.2-8 1.6-11.2l-1.6-1.6h-1.6c4.8 0 8 1.6 11.2 3.2 4.8 4.8 3.2 14.4-3.2 22.4-6.4 6.4-16 9.6-28.8 4.8-3.2-1.6-6.4-3.2-9.6-6.4 0 3.2-1.6 6.4-3.2 8-3.2 3.2-9.6 4.8-19.2 1.6 1.6 0 6.4 0 9.6-3.2 1.6-1.6 1.6-3.2 1.6-4.8v-3.2s-1.6-1.6-3.2-1.6-3.2-1.6-4.8-3.2c-1.6-1.6-3.2-4.8-3.2-9.6 0 1.6-1.6 3.2-3.2 3.2-1.6 1.6-1.6 1.6-3.2 1.6s-1.6 0-3.2 1.6-1.6 3.2-1.6 4.8v1.6s-1.6 0-3.2-1.6-3.2-3.2-3.2-4.8c0-1.6 0-4.8 1.6-6.4-1.6 1.6-6.4 4.8-12.8 4.8-3.2 0-6.4 0-9.6 1.6-1.6 0-1.6 1.6-3.2 1.6 0-1.6 3.2-4.8 3.2-12.8-1.6-4.8 1.6-9.6 4.8-12.8-3.2 1.6-4.8 1.6-6.4 1.6-3.2 0-4.8-1.6-4.8-3.2-1.6-1.6-1.6-3.2-1.6-3.2 1.6 0 4.8 0 6.4-1.6 0 0 1.6-1.6 1.6-3.2s1.6-3.2 1.6-3.2c-4.8-6.4-3.2-6.4-3.2-6.4-4.8 0-8 0-9.6-3.2-1.6-1.6-1.6-3.2-3.2-4.8 0-1.6-1.6-3.2-1.6-3.2s-1.6-1.6-3.2 0c-1.6 0-3.2 1.6-4.8 1.6-1.6 1.6-3.2 4.8-3.2 6.4v1.6c-3.2-9.6-1.6-16 1.6-19.2 1.6-1.6 4.8-3.2 8-3.2-1.6-3.2-3.2-4.8-4.8-8-6.4-11.2-1.6-22.4 4.8-28.8 6.4-6.4 16-9.6 22.4-3.2 1.6 1.6 3.2 6.4 3.2 11.2 0 0 0-1.6-1.6-3.2s-4.8-3.2-11.2 1.6c-8 8-8 17.6 0 27.2l4.8 4.8c11.2 8 41.6 8 75.2-17.6l235.2-235.2-14.4 3.2-59.2 59.2 27.2-44.8-89.6 57.6c-17.6 16-20.8 32-17.6 38.4 0 1.6 1.6 1.6 1.6 3.2 3.2 6.4 9.6 6.4 14.4 3.2 3.2-1.6 3.2-4.8 1.6-4.8 0 0 0-1.6-1.6-1.6 3.2 0 4.8 1.6 4.8 3.2 1.6 3.2 0 8-4.8 11.2-4.8 3.2-9.6 3.2-16-1.6l-4.8-4.8c0 1.6-1.6 3.2-3.2 3.2-3.2 1.6-6.4 1.6-11.2-1.6h4.8l1.6-1.6v-1.6l-1.6-1.6c-1.6 0-1.6-1.6-3.2-1.6-1.6-1.6-1.6-3.2 0-6.4l-1.6 1.6h-1.6-1.6l-1.6 1.6v1.6l-1.6-1.6c0-1.6-1.6-1.6-1.6-3.2s0-1.6 1.6-3.2c-1.6 1.6-4.8 1.6-6.4 1.6-1.6-1.6-3.2-1.6-4.8 0h-1.6s3.2-3.2 3.2-6.4 1.6-4.8 3.2-6.4h-3.2c-1.6 0-1.6-1.6-3.2-1.6 0-1.6-1.6-1.6-1.6-1.6h3.2l1.6-1.6c0-1.6 1.6-1.6 1.6-1.6s1.6 0 1.6-1.6c-3.2 0-4.8-1.6-4.8-3.2s-1.6-1.6-1.6-3.2v-1.6H270.4c-1.6 0-1.6 1.6-1.6 3.2v1.6c0-4.8 0-8 3.2-9.6 1.6-1.6 3.2-1.6 4.8-1.6-1.6-1.6-1.6-3.2-1.6-4.8-1.6-6.4 1.6-12.8 4.8-14.4 4.8-3.2 9.6-3.2 12.8 0 1.6 1.6 1.6 3.2 0 6.4v-1.6c-1.6-1.6-3.2-3.2-6.4 0-4.8 3.2-6.4 8-3.2 14.4 0 1.6 1.6 1.6 1.6 3.2 4.8 6.4 20.8 9.6 43.2 0l94.4-60.8 6.4-11.2-25.6-1.6 33.6-12.8 3.2-4.8h-1.6l-203.2 76.8c-27.2 16-36.8 36.8-35.2 46.4 0 1.6 0 3.2 1.6 4.8 3.2 8 11.2 11.2 17.6 8 4.8-1.6 4.8-4.8 4.8-6.4 0 0 0-1.6-1.6-1.6 3.2 1.6 4.8 3.2 6.4 4.8 1.6 4.8-3.2 11.2-9.6 14.4-6.4 1.6-14.4 1.6-20.8-6.4-1.6-1.6-3.2-4.8-4.8-6.4l-4.8 4.8c-3.2 1.6-8 0-14.4-4.8 0 0 4.8 1.6 6.4 0 1.6 0 1.6-1.6 3.2-1.6v-1.6s-1.6-1.6-1.6-3.2l-3.2-3.2c0-1.6 0-4.8 1.6-8 0 0-1.6 1.6-3.2 1.6h-3.2-1.6c-1.6 0-1.6 1.6-3.2 1.6v1.6s-1.6-1.6-1.6-3.2V656c0-1.6 1.6-3.2 3.2-4.8-1.6 0-6.4 1.6-9.6-1.6-3.2-1.6-4.8-1.6-6.4-1.6h-1.6s4.8-3.2 4.8-8c1.6-4.8 4.8-6.4 6.4-6.4-1.6 0-3.2 0-4.8-1.6l-3.2-3.2v-3.2c1.6 0 3.2 1.6 4.8 0 0 0 1.6 0 1.6-1.6s1.6-1.6 3.2-1.6h3.2c-3.2-1.6-4.8-3.2-6.4-4.8v-4.8-3.2s0-1.6-1.6-1.6h-3.2c-1.6 0-3.2 1.6-3.2 3.2 0 0 0 1.6-1.6 1.6 0-8 3.2-11.2 6.4-12.8h6.4c0-1.6-1.6-4.8-1.6-8 0-9.6 4.8-16 11.2-17.6 6.4-3.2 14.4-1.6 16 4.8 1.6 1.6 0 4.8-1.6 8v-3.2c-1.6-1.6-3.2-4.8-8-1.6-8 3.2-11.2 9.6-8 19.2 0 1.6 1.6 3.2 1.6 4.8 4.8 9.6 25.6 17.6 57.6 11.2L432 540.8l-8-1.6-25.6 9.6 17.6-11.2-62.4-16h84.8l8-6.4H116.8c-41.6 6.4-62.4 27.2-65.6 41.6v6.4c0 12.8 8 19.2 17.6 19.2 8 0 8-3.2 8-6.4v-3.2-1.6c3.2 3.2 4.8 6.4 4.8 9.6 0 8-8 12.8-17.6 12.8-8 0-19.2-4.8-22.4-17.6-1.6-3.2-1.6-6.4-1.6-11.2-3.2 1.6-4.8 3.2-8 3.2-4.8 0-11.2-3.2-14.4-12.8 0 1.6 4.8 4.8 8 4.8 1.6 0 3.2 0 4.8-1.6 1.6 0 1.6-1.6 1.6-1.6 0-1.6 0-3.2-1.6-4.8 0-1.6-1.6-3.2-1.6-6.4s1.6-6.4 4.8-9.6h-4.8c-1.6 0-3.2 0-4.8-1.6 0 0-1.6-1.6-3.2-1.6s-3.2 0-4.8 1.6l-1.6 1.6v-3.2c0-1.6 0-3.2 1.6-6.4l4.8-4.8c-3.2 0-8-1.6-11.2-4.8-1.6-3.2-4.8-4.8-6.4-6.4 0 1.6-1.6 1.6-3.2 0 1.6 1.6 1.6 1.6 0 0 0 1.6 0 1.6 0 0 0 1.6 0 1.6 0 0 0 1.6 0 1.6 0 0z" p-id="2031" fill="#ffffff"></path></svg>